<?xml version="1.0" encoding="utf-8"?>
<!-- Generator: Adobe Illustrator 16.0.0, SVG Export Plug-In . SVG Version: 6.00 Build 0)  -->
<!DOCTYPE svg PUBLIC "-//W3C//DTD SVG 1.1//EN" "http://www.w3.org/Graphics/SVG/1.1/DTD/svg11.dtd">
<svg version="1.1" id="Layer_2_1_" xmlns="http://www.w3.org/2000/svg" xmlns:xlink="http://www.w3.org/1999/xlink" x="0px" y="0px"
	 width="360px" height="360px" viewBox="-53.859 0 360 360" enable-background="new -53.859 0 360 360" xml:space="preserve">
<path fill="#F9A5EF" d="M179.301,183.894c0,0-53.161,47.086-53.161,165.878c0-118.792-53.159-165.878-53.159-165.878"/>
<g>
	<path fill="#F9A5EF" d="M126.139,34.335c-46.517,0-84.227,37.71-84.227,84.228c0,23.259,9.428,44.316,24.67,59.558
		c15.242,15.243,36.299,24.67,59.557,24.67c46.519,0,84.23-37.71,84.23-84.228S172.658,34.335,126.139,34.335z M126.14,174.857
		c-36.465,0-66.025-29.561-66.025-66.026c0-36.465,29.561-66.026,66.025-66.026c36.465,0,66.026,29.561,66.026,66.026
		C192.166,145.296,162.605,174.857,126.14,174.857z"/>
</g>
</svg>
